<svg width="40" height="40" viewBox="0 0 40 40" fill="none" xmlns="http://www.w3.org/2000/svg">
<circle cx="20" cy="20" r="20" fill="#E3F4F0"/>
<path d="M25.8857 13.0762H25.3714V12.5853C25.3714 11.7112 24.6793 11 23.8286 11C22.9779 11 22.2857 11.7112 22.2857 12.5853V13.0762H17.1428V12.5853C17.1428 11.7112 16.4507 11 15.6 11C14.7493 11 14.0571 11.7112 14.0571 12.5853V13.0762H13.5429C12.6921 13.0762 12 13.7874 12 14.6615V27.4147C12 28.2888 12.6921 29 13.5429 29H25.8857C26.7365 29 27.4286 28.2888 27.4286 27.4147V14.6615C27.4286 13.7874 26.7365 13.0762 25.8857 13.0762ZM23.3143 12.5853C23.3143 12.294 23.545 12.0569 23.8285 12.0569C24.1121 12.0569 24.3428 12.294 24.3428 12.5853V14.6991C24.3428 14.9905 24.1121 15.2275 23.8285 15.2275C23.545 15.2275 23.3143 14.9905 23.3143 14.6991V12.5853ZM15.0857 12.5853C15.0857 12.294 15.3164 12.0569 15.6 12.0569C15.8836 12.0569 16.1143 12.294 16.1143 12.5853V14.6991C16.1143 14.9905 15.8836 15.2275 15.6 15.2275C15.3164 15.2275 15.0857 14.9905 15.0857 14.6991V12.5853V12.5853ZM26.4 27.4147C26.4 27.706 26.1693 27.9431 25.8857 27.9431H13.5429C13.2593 27.9431 13.0286 27.706 13.0286 27.4147V18.3606H26.4V27.4147V27.4147ZM26.4 17.3038H13.0286V14.6615C13.0286 14.3701 13.2593 14.1331 13.5429 14.1331H14.0571V14.6991C14.0571 15.5733 14.7493 16.2845 15.6 16.2845C16.4507 16.2845 17.1428 15.5733 17.1428 14.6991V14.1331H22.2857V14.6991C22.2857 15.5733 22.9778 16.2845 23.8285 16.2845C24.6793 16.2845 25.3714 15.5733 25.3714 14.6991V14.1331H25.8857C26.1692 14.1331 26.4 14.3701 26.4 14.6615V17.3038H26.4Z" fill="#4A4A4A"/>
<path d="M22.0299 22.5137H20.1785V20.6152C20.1785 20.3533 19.9716 20.1406 19.7156 20.1406C19.4597 20.1406 19.2528 20.3533 19.2528 20.6152V22.5137H17.4013C17.1454 22.5137 16.9385 22.7263 16.9385 22.9883C16.9385 23.2503 17.1454 23.4629 17.4013 23.4629H19.2528V25.3613C19.2528 25.6233 19.4597 25.8359 19.7156 25.8359C19.9716 25.8359 20.1785 25.6233 20.1785 25.3613V23.4629H22.0299C22.2859 23.4629 22.4928 23.2503 22.4928 22.9883C22.4928 22.7263 22.2859 22.5137 22.0299 22.5137Z" fill="#4A4A4A"/>
</svg>
