<svg width="22" height="16" viewBox="0 0 22 16" fill="none" xmlns="http://www.w3.org/2000/svg">
<path d="M19.5555 0H1.77779C0.797292 0 0 0.797292 0 1.77779V14.2223C0 15.2027 0.797292 16 1.77779 16H19.5556C20.536 16 21.3333 15.2027 21.3333 14.2222V1.77779C21.3333 0.797292 20.536 0 19.5555 0ZM1.77779 0.888875H19.5556C19.6211 0.888875 19.6788 0.91275 19.7402 0.92625C18.2011 2.33488 13.0976 7.00371 11.3117 8.61283C11.1719 8.73871 10.9467 8.88888 10.6667 8.88888C10.3868 8.88888 10.1615 8.73871 10.0213 8.61242C8.2355 7.00354 3.13171 2.33446 1.59283 0.926333C1.65442 0.912833 1.71225 0.888875 1.77779 0.888875ZM0.888875 14.2222V1.77779C0.888875 1.69071 0.915125 1.61171 0.938625 1.53213C2.11663 2.61029 5.67763 5.86796 7.98663 7.96767C5.68513 9.94462 2.12321 13.3216 0.935833 14.4539C0.914875 14.3783 0.888875 14.3044 0.888875 14.2222ZM19.5555 15.1111H1.77779C1.70679 15.1111 1.64367 15.0864 1.57737 15.0705C2.80433 13.9009 6.38892 10.5045 8.64996 8.57017C8.94471 8.83754 9.21396 9.08133 9.42621 9.27258C9.79254 9.60333 10.2213 9.77779 10.6667 9.77779C11.112 9.77779 11.5408 9.60329 11.9067 9.273C12.119 9.08167 12.3885 8.83767 12.6834 8.57017C14.9445 10.5042 18.5286 13.9004 19.756 15.0705C19.6897 15.0864 19.6266 15.1111 19.5555 15.1111ZM20.4445 14.2222C20.4445 14.3043 20.4185 14.3783 20.3975 14.4539C19.2097 13.321 15.6482 9.94442 13.3468 7.96771C15.6558 5.868 19.2163 2.61063 20.3947 1.53204C20.4182 1.61162 20.4445 1.69067 20.4445 1.77775V14.2222Z" fill="#4F4F4F"/>
</svg>
