<svg width="20" height="20" viewBox="0 0 20 20" fill="none" xmlns="http://www.w3.org/2000/svg">
<path d="M8.07446 16.9647C8.08869 16.9553 8.10159 16.9446 8.10812 16.9391L8.10937 16.9381C8.11823 16.9308 8.11951 16.9299 8.11924 16.9301L8.13257 16.9212L8.13549 16.9182C8.14102 16.9139 8.14843 16.9075 8.1561 16.899C8.16315 16.8928 8.17248 16.8838 8.1818 16.8716L18.3816 6.6709L18.3817 6.6708C19.4061 5.64445 19.4061 3.98238 18.3817 2.95617L18.3814 2.95589L17.0391 1.61842C16.0128 0.59386 14.3509 0.59386 13.3246 1.61842L13.3242 1.6188L12.4478 2.50013L12.4475 2.50044L3.12883 11.815H3.11083L3.06638 11.8817C3.06657 11.8814 3.06556 11.8828 3.05864 11.8911L3.05766 11.8923C3.05215 11.8989 3.04098 11.9122 3.03115 11.9272L3.00656 11.9647V11.9686C3.00612 11.9693 3.0057 11.97 3.00529 11.9706C3.00256 11.9742 3.00013 11.9778 2.99795 11.9811L2.9854 11.9941L2.97459 12.0265C2.97369 12.0292 2.97275 12.0317 2.97031 12.0377C2.96909 12.0407 2.96741 12.0449 2.96549 12.0499C2.96015 12.0598 2.9555 12.0711 2.95221 12.0837C2.95216 12.0838 2.95211 12.084 2.95206 12.0842L0.88445 18.3024C0.884376 18.3026 0.884303 18.3028 0.884229 18.303C0.805142 18.5346 0.865562 18.7911 1.03988 18.963C1.16174 19.0832 1.3262 19.1506 1.49749 19.15L1.49955 19.15C1.56718 19.1488 1.63417 19.1383 1.69875 19.1188L1.69876 19.1189L1.70295 19.1175L7.91216 17.0459C7.92289 17.0436 7.93503 17.0399 7.94775 17.0337C7.95051 17.0324 7.95313 17.031 7.9556 17.0296C7.96868 17.0246 7.9816 17.0187 7.99423 17.0118C8.00687 17.0065 8.01854 16.9998 8.02908 16.9921C8.03162 16.9905 8.03545 16.9883 8.04161 16.9847L8.04312 16.9838C8.05075 16.9794 8.06301 16.9724 8.07446 16.9647ZM8.07446 16.9647C8.07441 16.9648 8.07436 16.9648 8.07431 16.9648L7.9914 16.8398L8.07461 16.9646C8.07456 16.9647 8.07451 16.9647 8.07446 16.9647ZM3.09593 11.8508C3.08129 11.8636 3.07324 11.8758 3.07106 11.8791L3.07098 11.8793C3.07064 11.8798 3.07032 11.8803 3.07003 11.8807L3.07264 11.8766C3.07686 11.8701 3.08397 11.8601 3.09455 11.8494L3.09593 11.8508ZM3.09593 11.8508L3.19111 11.9453L3.20103 11.9551L3.19111 11.9452L3.09593 11.8508ZM2.98745 11.9998C2.98709 12.0005 2.98726 12.0002 2.98783 11.9991L2.98745 11.9998ZM3.04957 11.9068L3.04858 11.9078L3.04957 11.9068ZM8.14115 16.911C8.14033 16.9116 8.14014 16.9118 8.14084 16.9112L8.14115 16.911ZM17.4709 5.76526L17.4705 5.76562L17.0514 6.1887L13.8161 2.95307L14.2403 2.52914C14.7617 2.0081 15.6069 2.00806 16.1285 2.5291C16.1285 2.52912 16.1285 2.52914 16.1285 2.52915L17.4752 3.87594C17.4753 3.87603 17.4754 3.87612 17.4755 3.87621C17.993 4.40032 17.9909 5.2438 17.4709 5.76526ZM4.4833 12.287L12.9006 3.86891L16.1363 7.10476L7.71898 15.5229L4.4833 12.287ZM3.8509 13.4811L6.51986 16.1501L2.51216 17.4846L3.8509 13.4811Z" fill="#15B690" stroke="#15B690" stroke-width="0.3"/>
</svg>
