<svg width="20" height="21" viewBox="0 0 20 21" fill="none" xmlns="http://www.w3.org/2000/svg">
<path d="M1.99219 6.69531C1.8099 6.69531 1.65365 6.76042 1.52344 6.89062C1.40625 7.00781 1.34766 7.15755 1.34766 7.33984C1.34766 7.52214 1.40625 7.67839 1.52344 7.80859C1.65365 7.92578 1.8099 7.98438 1.99219 7.98438C3.46354 7.98438 4.82422 8.24479 6.07422 8.76562C7.33724 9.27344 8.42448 9.98958 9.33594 10.9141C10.2474 11.8255 10.957 12.9128 11.4648 14.1758C11.9857 15.4388 12.2461 16.806 12.2461 18.2773C12.2461 18.4596 12.3047 18.6159 12.4219 18.7461C12.5521 18.8633 12.7083 18.9219 12.8906 18.9219C13.0729 18.9219 13.2227 18.8633 13.3398 18.7461C13.4701 18.6159 13.5352 18.4596 13.5352 18.2773C13.5352 16.6237 13.2422 15.0872 12.6562 13.668C12.0833 12.2487 11.2826 11.0247 10.2539 9.99609C9.22526 8.96745 8.00781 8.16016 6.60156 7.57422C5.19531 6.98828 3.65885 6.69531 1.99219 6.69531ZM1.99219 0.308594C1.82292 0.308594 1.67318 0.373698 1.54297 0.503906C1.41276 0.621094 1.34766 0.764323 1.34766 0.933594C1.34766 1.11589 1.41276 1.27214 1.54297 1.40234C1.67318 1.51953 1.82292 1.57812 1.99219 1.57812C4.28385 1.57812 6.4388 2.01432 8.45703 2.88672C10.4883 3.75911 12.2591 4.95052 13.7695 6.46094C15.2799 7.97135 16.4714 9.74219 17.3438 11.7734C18.2161 13.7917 18.6523 15.9466 18.6523 18.2383C18.6523 18.4076 18.7109 18.5573 18.8281 18.6875C18.9583 18.8177 19.1146 18.8828 19.2969 18.8828C19.4661 18.8828 19.6094 18.8177 19.7266 18.6875C19.8568 18.5573 19.9219 18.4076 19.9219 18.2383C19.9219 15.7643 19.4531 13.4401 18.5156 11.2656C17.5781 9.09115 16.2956 7.1901 14.668 5.5625C13.0404 3.9349 11.1393 2.65234 8.96484 1.71484C6.79036 0.777344 4.46615 0.308594 1.99219 0.308594ZM3.59375 13.1406C2.61719 13.1406 1.78385 13.4857 1.09375 14.1758C0.416667 14.8659 0.078125 15.6927 0.078125 16.6562C0.078125 17.6328 0.416667 18.4661 1.09375 19.1562C1.78385 19.8464 2.61719 20.1914 3.59375 20.1914C4.57031 20.1914 5.39714 19.8464 6.07422 19.1562C6.76432 18.4661 7.10938 17.6328 7.10938 16.6562C7.10938 15.6927 6.76432 14.8659 6.07422 14.1758C5.39714 13.4857 4.57031 13.1406 3.59375 13.1406ZM3.59375 18.9609C2.96875 18.9609 2.42839 18.7396 1.97266 18.2969C1.52995 17.8411 1.30859 17.2943 1.30859 16.6562C1.30859 16.0312 1.52995 15.4974 1.97266 15.0547C2.42839 14.599 2.96875 14.3711 3.59375 14.3711C4.21875 14.3711 4.7526 14.599 5.19531 15.0547C5.65104 15.4974 5.87891 16.0312 5.87891 16.6562C5.87891 17.2943 5.65104 17.8411 5.19531 18.2969C4.7526 18.7396 4.21875 18.9609 3.59375 18.9609Z" fill="#4F4F4F"/>
</svg>
