<svg width="22" height="21" viewBox="0 0 22 21" fill="none" xmlns="http://www.w3.org/2000/svg">
<path d="M20.8633 10.2695L11.4688 0.445312C11.4167 0.380208 11.3516 0.334635 11.2734 0.308594C11.1953 0.269531 11.1107 0.25 11.0195 0.25C10.9414 0.25 10.8633 0.269531 10.7852 0.308594C10.707 0.334635 10.6354 0.380208 10.5703 0.445312L1.13672 10.2695C1.01953 10.3997 0.967448 10.5495 0.980469 10.7188C0.980469 10.888 1.03906 11.0378 1.15625 11.168C1.28646 11.2852 1.4362 11.3438 1.60547 11.3438C1.77474 11.3307 1.92448 11.2656 2.05469 11.1484L2.89453 10.2695V19.625C2.89453 19.7943 2.95312 19.9375 3.07031 20.0547C3.1875 20.1849 3.33724 20.25 3.51953 20.25H7.875C8.04427 20.25 8.1875 20.1849 8.30469 20.0547C8.4349 19.9375 8.5 19.7943 8.5 19.625L8.51953 13.375H13.5V19.625C13.5 19.7943 13.5586 19.9375 13.6758 20.0547C13.806 20.1849 13.9557 20.25 14.125 20.25H18.5C18.6693 20.25 18.8125 20.1849 18.9297 20.0547C19.0599 19.9375 19.125 19.7943 19.125 19.625V10.2695L19.9648 11.1484C20.0169 11.2135 20.082 11.2656 20.1602 11.3047C20.2383 11.3307 20.3229 11.3438 20.4141 11.3438C20.4922 11.3438 20.5638 11.3307 20.6289 11.3047C20.707 11.2656 20.7786 11.2201 20.8438 11.168C20.9609 11.0378 21.0195 10.888 21.0195 10.7188C21.0326 10.5495 20.9805 10.3997 20.8633 10.2695ZM17.875 9.13672V19H14.75V12.75C14.75 12.5807 14.6849 12.4375 14.5547 12.3203C14.4375 12.1901 14.2943 12.125 14.125 12.125H7.89453C7.72526 12.125 7.57552 12.1901 7.44531 12.3203C7.32812 12.4375 7.26953 12.5807 7.26953 12.75L7.25 19H4.14453V9.13672C4.14453 9.11068 4.13802 9.08464 4.125 9.05859C4.125 9.03255 4.125 9.00651 4.125 8.98047L11.0195 1.79297L17.8945 8.98047C17.8815 9.00651 17.875 9.03255 17.875 9.05859C17.875 9.08464 17.875 9.11068 17.875 9.13672Z" fill="#15B790"/>
</svg>
