<svg width="18" height="18" viewBox="0 0 18 18" fill="none" xmlns="http://www.w3.org/2000/svg">
<path d="M9 0C4.02528 0 0 4.02564 0 9C0 13.9747 4.02564 18 9 18C13.9747 18 18 13.9744 18 9C18 4.02528 13.9743 0 9 0ZM9 16.5938C4.80259 16.5938 1.40625 13.1971 1.40625 9C1.40625 4.80259 4.80287 1.40625 9 1.40625C13.1974 1.40625 16.5938 4.80287 16.5938 9C16.5938 13.1974 13.1971 16.5938 9 16.5938Z" fill="#4F4F4F"/>
<path d="M9 7.53504C8.61166 7.53504 8.29688 7.84983 8.29688 8.23817V12.766C8.29688 13.1544 8.61166 13.4692 9 13.4692C9.38834 13.4692 9.70312 13.1543 9.70312 12.766V8.23817C9.70312 7.84983 9.38834 7.53504 9 7.53504Z" fill="#4F4F4F"/>
<path d="M9 6.67406C9.52424 6.67406 9.94922 6.24908 9.94922 5.72484C9.94922 5.2006 9.52424 4.77562 9 4.77562C8.47576 4.77562 8.05078 5.2006 8.05078 5.72484C8.05078 6.24908 8.47576 6.67406 9 6.67406Z" fill="#4F4F4F"/>
</svg>
