<svg width="17" height="16" viewBox="0 0 17 16" fill="none" xmlns="http://www.w3.org/2000/svg">
<path fill-rule="evenodd" clip-rule="evenodd" d="M14.6125 1H2.0875C1.81068 1 1.5452 1.10536 1.34946 1.29289C1.15372 1.48043 1.04375 1.73478 1.04375 2V13.586L3.13126 11.586C3.52265 11.2109 4.05352 11.0001 4.60712 11H14.6125C14.8893 11 15.1548 10.8946 15.3506 10.7071C15.5463 10.5196 15.6563 10.2652 15.6563 10V2C15.6563 1.73478 15.5463 1.48043 15.3506 1.29289C15.1548 1.10536 14.8893 1 14.6125 1ZM2.0875 0C1.53386 0 1.0029 0.210714 0.611416 0.585786C0.219933 0.960859 0 1.46957 0 2L0 14.793C2.19343e-05 14.8919 0.0306786 14.9886 0.0880898 15.0709C0.145501 15.1531 0.227086 15.2172 0.322519 15.255C0.417951 15.2928 0.522942 15.3026 0.624201 15.2832C0.725461 15.2638 0.818438 15.216 0.891364 15.146L3.86919 12.293C4.06488 12.1055 4.33032 12.0001 4.60712 12H14.6125C15.1662 12 15.6971 11.7893 16.0886 11.4142C16.4801 11.0391 16.7 10.5304 16.7 10V2C16.7 1.46957 16.4801 0.960859 16.0886 0.585786C15.6971 0.210714 15.1662 0 14.6125 0L2.0875 0Z" fill="url(#paint0_linear)"/>
<path d="M5.21787 6C5.21787 6.26522 5.10791 6.51957 4.91217 6.70711C4.71643 6.89464 4.45094 7 4.17412 7C3.8973 7 3.63182 6.89464 3.43608 6.70711C3.24034 6.51957 3.13037 6.26522 3.13037 6C3.13037 5.73478 3.24034 5.48043 3.43608 5.29289C3.63182 5.10536 3.8973 5 4.17412 5C4.45094 5 4.71643 5.10536 4.91217 5.29289C5.10791 5.48043 5.21787 5.73478 5.21787 6ZM9.39288 6C9.39288 6.26522 9.28292 6.51957 9.08717 6.70711C8.89143 6.89464 8.62595 7 8.34913 7C8.07231 7 7.80683 6.89464 7.61109 6.70711C7.41535 6.51957 7.30538 6.26522 7.30538 6C7.30538 5.73478 7.41535 5.48043 7.61109 5.29289C7.80683 5.10536 8.07231 5 8.34913 5C8.62595 5 8.89143 5.10536 9.08717 5.29289C9.28292 5.48043 9.39288 5.73478 9.39288 6ZM13.5679 6C13.5679 6.26522 13.4579 6.51957 13.2622 6.70711C13.0664 6.89464 12.801 7 12.5241 7C12.2473 7 11.9818 6.89464 11.7861 6.70711C11.5904 6.51957 11.4804 6.26522 11.4804 6C11.4804 5.73478 11.5904 5.48043 11.7861 5.29289C11.9818 5.10536 12.2473 5 12.5241 5C12.801 5 13.0664 5.10536 13.2622 5.29289C13.4579 5.48043 13.5679 5.73478 13.5679 6Z" fill="url(#paint1_linear)"/>
<defs>
<linearGradient id="paint0_linear" x1="16.7" y1="15.2929" x2="16.7" y2="0" gradientUnits="userSpaceOnUse">
<stop stop-color="#2ADABF"/>
<stop offset="1" stop-color="#14B78E"/>
</linearGradient>
<linearGradient id="paint1_linear" x1="13.5679" y1="7" x2="13.5679" y2="5" gradientUnits="userSpaceOnUse">
<stop stop-color="#2ADABF"/>
<stop offset="1" stop-color="#14B78E"/>
</linearGradient>
</defs>
</svg>
