<svg width="20" height="20" viewBox="0 0 20 20" fill="none" xmlns="http://www.w3.org/2000/svg">
<path d="M10 7C9.80222 7 9.60888 7.05865 9.44443 7.16853C9.27998 7.27841 9.15181 7.43459 9.07612 7.61732C9.00043 7.80004 8.98063 8.00111 9.01921 8.19509C9.0578 8.38907 9.15304 8.56725 9.29289 8.70711C9.43275 8.84696 9.61093 8.9422 9.80491 8.98079C9.99889 9.01937 10.2 8.99957 10.3827 8.92388C10.5654 8.84819 10.7216 8.72002 10.8315 8.55557C10.9414 8.39112 11 8.19778 11 8C11 7.73478 10.8946 7.48043 10.7071 7.29289C10.5196 7.10536 10.2652 7 10 7ZM17 0H3C2.20435 0 1.44129 0.316071 0.87868 0.87868C0.316071 1.44129 0 2.20435 0 3V13C0 13.7956 0.316071 14.5587 0.87868 15.1213C1.44129 15.6839 2.20435 16 3 16H14.59L18.29 19.71C18.3834 19.8027 18.4943 19.876 18.6161 19.9258C18.7379 19.9755 18.8684 20.0008 19 20C19.1312 20.0034 19.2613 19.976 19.38 19.92C19.5626 19.845 19.7189 19.7176 19.8293 19.5539C19.9396 19.3901 19.999 19.1974 20 19V3C20 2.20435 19.6839 1.44129 19.1213 0.87868C18.5587 0.316071 17.7956 0 17 0ZM18 16.59L15.71 14.29C15.6166 14.1973 15.5057 14.124 15.3839 14.0742C15.2621 14.0245 15.1316 13.9992 15 14H3C2.73478 14 2.48043 13.8946 2.29289 13.7071C2.10536 13.5196 2 13.2652 2 13V3C2 2.73478 2.10536 2.48043 2.29289 2.29289C2.48043 2.10536 2.73478 2 3 2H17C17.2652 2 17.5196 2.10536 17.7071 2.29289C17.8946 2.48043 18 2.73478 18 3V16.59ZM6 7C5.80222 7 5.60888 7.05865 5.44443 7.16853C5.27998 7.27841 5.15181 7.43459 5.07612 7.61732C5.00043 7.80004 4.98063 8.00111 5.01921 8.19509C5.0578 8.38907 5.15304 8.56725 5.29289 8.70711C5.43275 8.84696 5.61093 8.9422 5.80491 8.98079C5.99889 9.01937 6.19996 8.99957 6.38268 8.92388C6.56541 8.84819 6.72159 8.72002 6.83147 8.55557C6.94135 8.39112 7 8.19778 7 8C7 7.73478 6.89464 7.48043 6.70711 7.29289C6.51957 7.10536 6.26522 7 6 7ZM14 7C13.8022 7 13.6089 7.05865 13.4444 7.16853C13.28 7.27841 13.1518 7.43459 13.0761 7.61732C13.0004 7.80004 12.9806 8.00111 13.0192 8.19509C13.0578 8.38907 13.153 8.56725 13.2929 8.70711C13.4327 8.84696 13.6109 8.9422 13.8049 8.98079C13.9989 9.01937 14.2 8.99957 14.3827 8.92388C14.5654 8.84819 14.7216 8.72002 14.8315 8.55557C14.9414 8.39112 15 8.19778 15 8C15 7.73478 14.8946 7.48043 14.7071 7.29289C14.5196 7.10536 14.2652 7 14 7Z" fill="#121212"/>
</svg>
