<svg width="24" height="7" viewBox="0 0 24 7" fill="none" xmlns="http://www.w3.org/2000/svg">
<path d="M21.0703 6.45312C20.9766 6.45312 20.875 6.45312 20.7656 6.45312C20.6562 6.45312 20.5469 6.45312 20.4375 6.45312C20.4219 6.45312 20.3984 6.45312 20.3672 6.45312C20.3359 6.4375 20.3125 6.42188 20.2969 6.40625C19.625 6.3125 19.0469 6.01562 18.5625 5.51562C18.0938 5.01562 17.8438 4.4375 17.8125 3.78125C17.75 3.04688 17.9062 2.39844 18.2812 1.83594C18.6719 1.27344 19.2109 0.890625 19.8984 0.6875C19.9766 0.65625 20.0625 0.632812 20.1562 0.617188C20.25 0.585938 20.3438 0.5625 20.4375 0.546875C20.5469 0.546875 20.6562 0.546875 20.7656 0.546875C20.875 0.546875 20.9766 0.546875 21.0703 0.546875C21.1016 0.546875 21.125 0.554688 21.1406 0.570312C21.1562 0.570312 21.1797 0.578125 21.2109 0.59375C21.8203 0.6875 22.3438 0.945312 22.7812 1.36719C23.2344 1.77344 23.5234 2.28125 23.6484 2.89062C23.6641 2.9375 23.6719 2.98438 23.6719 3.03125C23.6875 3.07812 23.7031 3.125 23.7188 3.17188C23.7188 3.28125 23.7188 3.39062 23.7188 3.5C23.7188 3.60938 23.7188 3.71094 23.7188 3.80469C23.7188 3.83594 23.7109 3.85938 23.6953 3.875C23.6953 3.89062 23.6875 3.91406 23.6719 3.94531C23.5781 4.55469 23.3281 5.07812 22.9219 5.51562C22.5156 5.9375 22.0156 6.21875 21.4219 6.35938C21.3594 6.375 21.2969 6.39062 21.2344 6.40625C21.1875 6.42188 21.1328 6.4375 21.0703 6.45312ZM3.07031 0.546875C3.16406 0.546875 3.26562 0.546875 3.375 0.546875C3.48438 0.546875 3.59375 0.546875 3.70312 0.546875C3.71875 0.546875 3.74219 0.554688 3.77344 0.570312C3.80469 0.570312 3.82812 0.578125 3.84375 0.59375C4.51562 0.6875 5.08594 0.992188 5.55469 1.50781C6.03906 2.00781 6.29688 2.58594 6.32812 3.24219C6.375 3.96094 6.20312 4.60938 5.8125 5.1875C5.4375 5.75 4.90625 6.13281 4.21875 6.33594C4.14062 6.35156 4.05469 6.375 3.96094 6.40625C3.86719 6.42188 3.78125 6.4375 3.70312 6.45312C3.59375 6.45312 3.48438 6.45312 3.375 6.45312C3.26562 6.45312 3.16406 6.45312 3.07031 6.45312C3.03906 6.45312 3.01562 6.45312 3 6.45312C2.98438 6.4375 2.96094 6.42188 2.92969 6.40625C2.32031 6.29688 1.8125 6.07031 1.40625 5.72656C1.01562 5.36719 0.726562 4.89062 0.539062 4.29688C0.523438 4.21875 0.5 4.14062 0.46875 4.0625C0.453125 3.98438 0.4375 3.90625 0.421875 3.82812C0.421875 3.71875 0.421875 3.60938 0.421875 3.5C0.421875 3.39062 0.421875 3.28125 0.421875 3.17188C0.421875 3.15625 0.429688 3.14062 0.445312 3.125C0.460938 3.09375 0.46875 3.07031 0.46875 3.05469C0.5625 2.44531 0.8125 1.92188 1.21875 1.48438C1.625 1.04688 2.13281 0.757812 2.74219 0.617188C2.78906 0.617188 2.83594 0.609375 2.88281 0.59375C2.94531 0.578125 3.00781 0.5625 3.07031 0.546875ZM11.7422 0.546875C11.8516 0.546875 11.9609 0.546875 12.0703 0.546875C12.1797 0.546875 12.2891 0.546875 12.3984 0.546875C12.4141 0.546875 12.4297 0.554688 12.4453 0.570312C12.4766 0.570312 12.5078 0.578125 12.5391 0.59375C13.2109 0.703125 13.7812 1.01562 14.25 1.53125C14.7344 2.03125 14.9922 2.60938 15.0234 3.26562C15.0547 4.01562 14.8672 4.67969 14.4609 5.25781C14.0547 5.82031 13.5078 6.1875 12.8203 6.35938C12.7578 6.375 12.6875 6.39062 12.6094 6.40625C12.5312 6.42188 12.4609 6.4375 12.3984 6.45312C12.2891 6.45312 12.1797 6.45312 12.0703 6.45312C11.9609 6.45312 11.8516 6.45312 11.7422 6.45312C11.7266 6.45312 11.7031 6.44531 11.6719 6.42969C11.6562 6.41406 11.6328 6.40625 11.6016 6.40625C10.9297 6.3125 10.3516 6.00781 9.86719 5.49219C9.39844 4.97656 9.14844 4.39062 9.11719 3.73438C9.08594 2.98438 9.27344 2.32812 9.67969 1.76562C10.0859 1.1875 10.6328 0.8125 11.3203 0.640625C11.3828 0.625 11.4531 0.609375 11.5312 0.59375C11.6094 0.578125 11.6797 0.5625 11.7422 0.546875Z" fill="#12B38B"/>
</svg>
