<svg width="12" height="12" viewBox="0 0 12 12" fill="none" xmlns="http://www.w3.org/2000/svg">
<path d="M10.6465 4.98814H6.9285V1.27011C6.9285 0.757013 6.513 0.340576 5.99897 0.340576C5.48494 0.340576 5.06944 0.757013 5.06944 1.27011V4.98814H1.35141C0.837375 4.98814 0.421875 5.40458 0.421875 5.91767C0.421875 6.43076 0.837375 6.8472 1.35141 6.8472H5.06944V10.5652C5.06944 11.0783 5.48494 11.4948 5.99897 11.4948C6.513 11.4948 6.9285 11.0783 6.9285 10.5652V6.8472H10.6465C11.1606 6.8472 11.5761 6.43076 11.5761 5.91767C11.5761 5.40458 11.1606 4.98814 10.6465 4.98814Z" fill="#15B790"/>
</svg>
