<svg width="16" height="16" viewBox="0 0 16 16" fill="none" xmlns="http://www.w3.org/2000/svg">
<path d="M13.5 11C13.0834 11 12.6979 11.0938 12.3438 11.2813C12 11.4583 11.7187 11.7031 11.5 12.0156L4.90625 8.65624C4.9375 8.55208 4.95834 8.44792 4.96875 8.34376C4.98958 8.2292 5 8.11456 5 8C5 7.85416 4.98438 7.71354 4.95313 7.57813C4.93229 7.44271 4.90104 7.3125 4.85938 7.1875L11.4844 3.96875C11.7135 4.28125 12 4.53125 12.3438 4.71875C12.6979 4.90625 13.0834 5 13.5 5C14.1875 5 14.7761 4.75521 15.2656 4.26562C15.7552 3.77604 16 3.1875 16 2.5C16 1.8125 15.7552 1.22396 15.2656 0.734376C14.7761 0.244792 14.1875 0 13.5 0C12.8125 0 12.2239 0.244792 11.7344 0.734376C11.2448 1.22396 11 1.8125 11 2.5C11 2.59375 11.0052 2.6875 11.0156 2.78125C11.0261 2.875 11.0417 2.96875 11.0625 3.0625L4.34375 6.32813C4.11458 6.06771 3.83854 5.86458 3.51562 5.71875C3.20313 5.57292 2.86458 5.5 2.5 5.5C1.8125 5.5 1.22396 5.74479 0.734375 6.23438C0.244792 6.72396 0 7.3125 0 8C0 8.68752 0.244792 9.27608 0.734375 9.7656C1.22396 10.2552 1.8125 10.5 2.5 10.5C2.89583 10.5 3.26042 10.4166 3.59375 10.25C3.9375 10.0729 4.22396 9.83856 4.45313 9.54688L11.0782 12.9218C11.0469 13.0156 11.0261 13.1094 11.0156 13.2031C11.0052 13.2969 11 13.3958 11 13.5C11 14.1875 11.2448 14.7761 11.7344 15.2656C12.2239 15.7552 12.8125 16 13.5 16C14.1875 16 14.7761 15.7552 15.2656 15.2656C15.7552 14.7761 16 14.1875 16 13.5C16 12.8125 15.7552 12.2239 15.2656 11.7344C14.7761 11.2448 14.1875 11 13.5 11ZM13.5 1C13.9166 1 14.2708 1.14583 14.5625 1.4375C14.8542 1.72917 15 2.08334 15 2.5C15 2.91666 14.8542 3.27083 14.5625 3.5625C14.2708 3.85417 13.9166 4 13.5 4C13.0834 4 12.7292 3.85417 12.4375 3.5625C12.1458 3.27083 12 2.91666 12 2.5C12 2.08334 12.1458 1.72917 12.4375 1.4375C12.7292 1.14583 13.0834 1 13.5 1ZM2.5 9.5C2.08334 9.5 1.72917 9.35416 1.4375 9.06248C1.14583 8.7708 1 8.41664 1 8C1 7.58334 1.14583 7.22917 1.4375 6.9375C1.72917 6.64583 2.08334 6.5 2.5 6.5C2.91666 6.5 3.27083 6.64583 3.5625 6.9375C3.85417 7.22917 4 7.58334 4 8C4 8.41664 3.85417 8.7708 3.5625 9.06248C3.27083 9.35416 2.91666 9.5 2.5 9.5ZM13.5 15C13.0834 15 12.7292 14.8542 12.4375 14.5625C12.1458 14.2708 12 13.9166 12 13.5C12 13.0834 12.1458 12.7292 12.4375 12.4375C12.7292 12.1458 13.0834 12 13.5 12C13.9166 12 14.2708 12.1458 14.5625 12.4375C14.8542 12.7292 15 13.0834 15 13.5C15 13.9166 14.8542 14.2708 14.5625 14.5625C14.2708 14.8542 13.9166 15 13.5 15Z" fill="url(#paint0_linear)"/>
<defs>
<linearGradient id="paint0_linear" x1="8" y1="0" x2="8" y2="16" gradientUnits="userSpaceOnUse">
<stop stop-color="#15B890"/>
<stop offset="1" stop-color="#29D9BD"/>
</linearGradient>
</defs>
</svg>
